<?xml version="1.0" standalone="no"?>
<!DOCTYPE svg PUBLIC "-//W3C//DTD SVG 1.1//EN" "http://www.w3.org/Graphics/SVG/1.1/DTD/svg11.dtd">
<svg xmlns="http://www.w3.org/2000/svg" id="Layer_1" viewBox="0 0 600 466.93" width="600" height="466.92999267578125"><defs><style>.cls-1{fill:#191919;}</style></defs><rect class="cls-1" x="0" y="416.99" width="7.21" height="48.77"/><path class="cls-1" d="M29.75,439.88l-5.98-3.87c-2.81-1.76-4.04-3.83-4.04-7v-2.32c0-2.95,1.58-5.1,4.61-5.1,3.3,0,4.82,2.36,4.82,6.89v4.33l7.21-1.37v-3.66c0-8.58-4.32-11.95-12.03-11.95-7.28,0-11.96,4.26-11.96,11.32v2.5c0,4.99,1.65,8.65,6.54,11.82l5.84,3.69c3.83,2.5,4.32,4.4,4.32,8.26v1.76c0,3.66-1.58,5.91-4.82,5.91-3.45,0-5.1-2.6-5.1-7.6v-4.96l-7.35,1.37v4.04c0,8.4,4.4,12.97,12.45,12.97s12.24-4.4,12.24-11.88v-2.6c0-5.27-1.27-9.07-6.75-12.55Z"/><polygon class="cls-1" points="48.42 416.99 41.17 416.99 41.17 465.76 60.76 465.76 60.76 459.26 48.42 459.26 48.42 416.99"/><path class="cls-1" d="M82.66,417h-9.29l-9.8,48.76h7.27l2.26-12.96h9.76l2.26,12.96h7.27l-9.74-48.76Zm-8.57,30.23l2.88-16.34c.39-2.4,.66-4.69,.95-7.21h.21c.29,2.53,.47,4.81,.88,7.21l2.88,16.34h-7.79Z"/><path class="cls-1" d="M114.59,448.11c-.46,2.67-.81,4.96-.88,7.14h-.28c-.07-2.18-.46-4.47-.95-7.14l-5.31-31.12h-10.41v48.77h6.36v-27.95c0-3.48,0-9.88-.14-13.33h.28c.07,.77,.49,4.08,1.02,8.19l5.98,33.09h6.47l5.98-33.09c.6-4.11,.81-5.56,1.02-8.19h.35c-.14,3.45-.14,9.84-.14,13.33v27.95h6.4v-48.77h-10.44l-5.31,31.12Z"/><rect class="cls-1" x="136.5" y="416.99" width="7.21" height="48.77"/><path class="cls-1" d="M162.24,415.83c-8.47,0-13.19,5.03-13.19,14.49v21.38c0,10.16,4.68,15.22,13.04,15.22s12.62-4.5,12.62-12.97v-5.13l-7.42-1.65v6.85c0,4.47-1.72,6.89-5.06,6.89-3.73,0-5.7-2.88-5.7-8.47v-22.85c0-5.56,1.97-7.77,5.56-7.77s5.13,2.39,5.13,7.28v5.56l7.56-1.58v-4.25c0-8.93-4.47-12.97-12.55-12.97Z"/><path class="cls-1" d="M204.68,415.83c-8.47,0-13.19,5.03-13.19,14.49v21.38c0,10.16,4.64,15.22,13.04,15.22,7.95,0,12.62-4.5,12.62-12.97v-5.13l-7.42-1.65v6.85c0,4.47-1.72,6.89-5.06,6.89-3.73,0-5.73-2.88-5.73-8.47v-22.85c0-5.56,2-7.77,5.59-7.77s5.13,2.39,5.13,7.28v5.56l7.56-1.58v-4.25c0-8.93-4.47-12.97-12.55-12.97Z"/><polygon class="cls-1" points="229.5 443.58 241.53 443.58 241.53 437.67 229.5 437.67 229.5 422.9 242.62 422.9 242.62 416.99 222.29 416.99 222.29 465.76 243.11 465.76 243.11 459.85 229.5 459.85 229.5 443.58"/><path class="cls-1" d="M267.33,441.68c0,4.11,.21,7.88,.46,11.81h-.14c-.53-2.85-1.09-5.38-1.97-8.05l-10.09-28.45h-7.91v48.77h6.61v-28.41c0-3.38-.21-6.19-.56-9.49h.21c.53,2.67,1.02,4.89,2.18,8.05l10.44,29.85h7.35v-48.77h-6.58v24.68Z"/><polygon class="cls-1" points="277.99 423.32 287.55 423.32 287.55 465.76 294.69 465.76 294.69 423.32 304.15 423.32 304.15 416.99 277.99 416.99 277.99 423.32"/><polygon class="cls-1" points="315.44 443.58 327.43 443.58 327.43 437.67 315.44 437.67 315.44 422.9 328.55 422.9 328.55 416.99 308.23 416.99 308.23 465.76 329.01 465.76 329.01 459.85 315.44 459.85 315.44 443.58"/><path class="cls-1" d="M351.66,443.79c3.8-1.66,5.98-5.49,5.98-11.55v-2.73c0-7.99-3.64-12.51-12.55-12.51h-11.47v48.76h7.21v-20.47h4.11l6.37,20.47h7.62l-7.27-21.97Zm-1.38-11.32c0,5.26-1.64,7.83-5.69,7.83h-3.76v-18h3.76c4.05,0,5.69,2.12,5.69,7.36v2.82Z"/><path class="cls-1" d="M387.9,415.83c-8.65,0-13.54,5.18-13.54,14.69v21.7c0,9.49,4.89,14.71,13.54,14.71s13.54-5.14,13.54-14.71v-21.7c0-9.51-4.89-14.69-13.54-14.69Zm6.04,37.17c0,5.14-2.18,8.01-6.04,8.01s-6.04-2.96-6.04-8.01v-23.22c0-5.16,2.14-8.03,6.04-8.03s6.04,2.88,6.04,8.03v23.22Z"/><polygon class="cls-1" points="406.75 465.76 413.96 465.76 413.96 443.65 425.98 443.65 425.98 437.74 413.96 437.74 413.96 422.9 427.07 422.9 427.07 416.99 406.75 416.99 406.75 465.76"/><path class="cls-1" d="M461.5,448.11c-.49,2.67-.84,4.96-.91,7.14h-.25c-.07-2.18-.49-4.47-.98-7.14l-5.27-31.12h-10.44v48.77h6.4v-27.95c0-3.48,0-9.88-.14-13.33h.28c.07,.77,.46,4.08,1.02,8.19l5.98,33.09h6.43l5.98-33.09c.63-4.11,.84-5.56,1.05-8.19h.32c-.11,3.45-.11,9.84-.11,13.33v27.95h6.36v-48.77h-10.44l-5.27,31.12Z"/><path class="cls-1" d="M500.63,417h-9.29l-9.8,48.76h7.27l2.26-12.96h9.76l2.26,12.96h7.27l-9.74-48.76Zm-8.57,30.23l2.88-16.34c.39-2.4,.66-4.69,.95-7.21h.21c.29,2.53,.49,4.81,.88,7.21l2.88,16.34h-7.79Z"/><path class="cls-1" d="M530.63,439.88l-5.98-3.87c-2.81-1.76-4.04-3.83-4.04-7v-2.32c0-2.95,1.58-5.1,4.61-5.1,3.31,0,4.82,2.36,4.82,6.89v4.33l7.21-1.37v-3.66c0-8.58-4.32-11.95-12.03-11.95-7.28,0-11.95,4.26-11.95,11.32v2.5c0,4.99,1.65,8.65,6.54,11.82l5.84,3.69c3.83,2.5,4.32,4.4,4.32,8.26v1.76c0,3.66-1.58,5.91-4.82,5.91-3.41,0-5.06-2.6-5.06-7.6v-4.96l-7.35,1.37v4.04c0,8.4,4.4,12.97,12.41,12.97s12.24-4.4,12.24-11.88v-2.6c0-5.27-1.23-9.07-6.75-12.55Z"/><path class="cls-1" d="M554.92,415.83c-8.65,0-13.54,5.18-13.54,14.69v21.7c0,9.49,4.89,14.71,13.54,14.71s13.54-5.14,13.54-14.71v-21.7c0-9.51-4.89-14.69-13.54-14.69Zm6.06,37.17c0,5.14-2.22,8.01-6.06,8.01s-6.04-2.96-6.04-8.01v-23.22c0-5.16,2.12-8.03,6.04-8.03s6.06,2.88,6.06,8.03v23.22Z"/><path class="cls-1" d="M593.39,416.99v24.68c0,4.11,.21,7.88,.49,11.81h-.14c-.53-2.85-1.09-5.38-1.97-8.05l-10.13-28.45h-7.88v48.77h6.58v-28.41c0-3.38-.21-6.19-.53-9.49h.21c.53,2.67,1.02,4.89,2.18,8.05l10.44,29.85h7.35v-48.77h-6.61Z"/><path class="cls-1" d="M494.18,135.62h-83.22c-36.9,0-69.04-18.8-89.45-47.34-9.16-12.84-15.21-28.21-18.35-43.68-1.13-5.55-1.97-10.66-3.16-15.82-1.19,5.2-2.03,10.6-3.16,15.82-3.33,15.43-9.18,30.84-18.35,43.68-20.4,28.54-52.54,47.34-89.45,47.34H105.82c-9.33,0-18.39,1.23-27.02,3.51v-1.03c0-4.13-1.73-8.05-4.75-10.85-3-2.75-4.68-6.64-4.68-10.69v-4.99l7.34-2.63c1.25-.45,2.1-1.66,2.1-3v-3.12h-6.43v-7.54h5.51v-7.19h-8.14s1.6-6.86,4.5-9.9l3.66-3.86c3.76-3.95,4.01-10.09,.58-14.32l-20.3-25.07c3.84-.04,7.4-1.29,10.27-3.43,2.88-2.12,5.05-5.12,6.21-8.59-2.71,3.55-6.97,5.84-11.75,5.84-8.16,0-14.77-6.62-14.77-14.75,0-6.51,4.21-12.02,10.05-13.99h-.12c-9.64,0-17.47,7.81-17.47,17.47,0,8.65,6.29,15.8,14.53,17.2l-.02,.02-20.53,25.32c-3.43,4.23-3.19,10.38,.58,14.32l3.68,3.86c2.9,3.04,4.5,9.9,4.5,9.9h-8.16v7.19h5.53v7.54h-6.45v3.12c0,1.34,.84,2.55,2.12,3l7.36,2.63v4.97c0,4.07-1.71,7.95-4.71,10.71-3.04,2.79-4.77,6.72-4.77,10.85v25.48C13.21,182.94,0,210.68,0,241.44v146.55H600V241.44c0-58.36-47.47-105.82-105.82-105.82ZM158.79,333.57c1.17,1.4,2.79,3.1,4.95,5.38,.58,.6,1.17,1.23,1.83,1.93,.35,.39,.7,.74,1.05,1.11h-52.97c.35-.37,.72-.72,1.05-1.11,.7-.72,1.34-1.4,1.93-1.99,.29-.31,.58-.6,.86-.88,7.79-8.12,7.79-8.69,7.79-12.97v-109.25c0-4.17,0-4.79-7.01-12.14-.49-.58-1.07-1.15-1.68-1.79-.27-.29-.6-.64-.9-.95-.33-.35-.68-.68-.99-1.01-.16-.16-.35-.35-.51-.55-.18-.18-.37-.37-.53-.55h52.97c-.35,.37-.7,.72-1.05,1.11-.66,.68-1.25,1.32-1.83,1.93-2.12,2.28-3.74,3.99-4.95,5.38-3.62,4.13-3.62,5.2-3.62,8.57v109.25c0,3.33,0,4.4,3.62,8.53Zm139.42-14.61c-.7,1.32-1.46,2.63-2.26,3.86-.41,.59-.82,1.23-1.25,1.81-1.27,1.81-2.71,3.47-4.19,5.03-9.62,9.92-23.84,15.41-42.21,15.41-10.75,0-20.55-1.91-29.16-5.38-8.63-3.49-16.11-8.59-22.23-15-12.27-12.82-19.19-30.86-19.19-51.84,0-45.62,30.47-77.14,75.49-77.14,5.42,0,10.44,.31,15.12,.93,2.32,.27,4.56,.66,6.72,1.11,4.32,.88,8.28,2.05,11.96,3.47,5.49,2.16,10.27,4.91,14.49,8.22h.04v35.38s-.04-.04-.04-.06c-1.66-2.92-3.35-5.61-5.08-8.16-.55-.82-1.13-1.66-1.66-2.47-.76-1.05-1.5-2.1-2.26-3.1-1.52-1.99-3.02-3.86-4.5-5.59-1.01-1.17-2.03-2.24-3.04-3.29-.27-.29-.51-.55-.76-.76-.23-.27-.51-.51-.76-.76-10.19-9.78-21.02-13.87-34.32-13.87-24.95,0-42.12,18.43-42.12,51.55,0,34.95,17.12,56.73,41.47,62.51,1.62,.41,3.29,.72,4.97,.95,2.79,.41,5.65,.6,8.59,.6,18.02,0,33.35-6.55,41.55-19.03-1.11,5.75-2.92,10.95-5.36,15.62Zm188.18,23.03h-58.91q16.54-12.45,16.54-17.59v-100.42l-53.38,92.65-.04,.02-52.95-91.69v99.43q0,5.14,17.98,17.59h-40.52c.39-.37,.74-.72,1.09-1.11,.7-.7,1.34-1.36,1.93-1.95,4.5-4.71,6.66-7.07,7.71-8.88,.12-.23,.23-.41,.31-.62,.18-.37,.33-.76,.41-1.13,.27-.97,.27-1.93,.27-3.27v-109.25c0-1.66,0-2.77-.47-3.99-.06-.18-.14-.35-.23-.53-.23-.43-.51-.95-.92-1.52-.41-.53-.88-1.17-1.52-1.89-.18-.27-.41-.51-.68-.76-.18-.18-.35-.39-.53-.62-.37-.41-.78-.84-1.23-1.32-.88-.97-1.91-2.03-3.1-3.31l-.95-.95c-.33-.35-.64-.7-.99-1.01-.35-.39-.7-.74-1.09-1.11h41.16l45.41,78.33,.02,.04,45.23-78.37h39.47q-11.67,12.06-11.67,16.99v109.25q0,4.91,11.67,16.95Z"/></svg>